<?xml version="1.0" encoding="UTF-8"?>
<svg width="156px" height="86px" viewBox="0 0 156 86" version="1.1" xmlns="http://www.w3.org/2000/svg" xmlns:xlink="http://www.w3.org/1999/xlink">
    <title>illu-viajar-large</title>
    <defs>
        <rect id="path-1" x="0" y="0" width="156" height="86"></rect>
    </defs>
    <g id="Assets" stroke="none" stroke-width="1" fill="none" fill-rule="evenodd">
        <g id="Artboard" transform="translate(-985.000000, -115.000000)">
            <g id="illu-viajar-large" transform="translate(985.000000, 115.000000)">
                <mask id="mask-2" fill="white">
                    <use xlink:href="#path-1"></use>
                </mask>
                <g id="Rectangle-Copy">
                    <use fill="#FFFFFF" xlink:href="#path-1"></use>
                    <use fill-opacity="0.19" fill="#103D7C" xlink:href="#path-1"></use>
                </g>
                <g id="passport-(1)" mask="url(#mask-2)">
                    <g transform="translate(35.000000, 5.000000)">
                        <path d="M81.4455198,9.74325994 C84.7225447,10.6206812 86.6673364,13.9866872 85.7890991,17.261383 L67.5054463,85.4487568 C66.6274009,88.7234526 63.2590009,90.6668621 59.981976,89.789249 L24.3806354,80.2565482 C21.1036104,79.3791269 19.1588187,76.013121 20.037056,72.7384251 L38.3207089,4.55124322 C39.1987542,1.27654738 42.5671542,-0.66686212 45.8441791,0.210750994 L81.4455198,9.74325994 Z" id="Path" fill="#F5F9EC" fill-rule="nonzero"></path>
                        <path d="M53.8924801,18.7892931 L34.5025362,18.7892931 L20.037056,72.738617 C19.1590107,76.013121 21.1039944,79.3791269 24.3810193,80.2565482 L59.982168,89.7886735 C63.2590009,90.6660948 66.6274009,88.7232608 67.5054463,85.448565 L78.7257676,43.6045472 L53.8924801,18.7892931 Z" id="Path" fill="#FFFBF7" fill-rule="nonzero"></path>
                        <path d="M81.4455198,9.74325994 C84.7225447,10.6206812 86.6673364,13.9866872 85.7890991,17.261383 L77.8396598,46.9080172 L30.3716535,34.1980692 L38.3210928,4.55143504 C39.1991382,1.27673921 42.5675381,-0.666670292 45.8445631,0.210942822 L81.4455198,9.74325994 Z" id="Path" fill="#FFBA3A" fill-rule="nonzero"></path>
                        <g id="Group" stroke-width="1" fill="none" fill-rule="evenodd" transform="translate(37.837328, 44.892437)">
                            <polygon id="Rectangle" fill="#C8BEB2" fill-rule="nonzero" transform="translate(4.265375, 22.628357) rotate(104.999329) translate(-4.265375, -22.628357) " points="-6.4771688 21.090851 15.0073737 21.0946708 15.0079194 24.1658639 -6.4766231 24.1620441"></polygon>
                            <polygon id="Rectangle" fill="#C8BEB2" fill-rule="nonzero" transform="translate(9.433010, 3.362464) rotate(104.999329) translate(-9.433010, -3.362464) " points="6.36353009 1.82632211 12.5019434 1.82741347 12.5024891 4.8986065 6.36407579 4.89751513"></polygon>
                            <polygon id="Rectangle" fill="#C8BEB2" fill-rule="nonzero" opacity="0.761514353" transform="translate(18.339310, 5.736921) rotate(104.999329) translate(-18.339310, -5.736921) " points="15.2698302 4.20077918 21.4082435 4.20187055 21.4087892 7.27306357 15.2703759 7.27197221"></polygon>
                            <polygon id="Rectangle" fill="#C8BEB2" fill-rule="nonzero" opacity="0.761514353" transform="translate(27.231950, 8.123633) rotate(104.999329) translate(-27.231950, -8.123633) " points="24.1624703 6.58749116 30.3008836 6.58858253 30.3014293 9.65977556 24.163016 9.65868419"></polygon>
                            <polygon id="Rectangle" fill="#C8BEB2" fill-rule="nonzero" transform="translate(13.159196, 25.013587) rotate(104.999329) translate(-13.159196, -25.013587) " points="2.41665179 23.4760807 23.9011942 23.4799005 23.9017399 26.5510936 2.41719749 26.5472738"></polygon>
                            <polygon id="Rectangle" fill="#C8BEB2" fill-rule="nonzero" opacity="0.761514353" transform="translate(22.070662, 27.400529) rotate(104.999329) translate(-22.070662, -27.400529) " points="11.3281181 25.8630228 32.8126606 25.8668426 32.8132063 28.9380356 11.3286638 28.9342158"></polygon>
                        </g>
                        <path d="M70.9548552,13.2893924 L68.4119023,12.608403 L59.329105,21.0707035 C56.9487459,20.4334509 54.2785206,19.7183161 53.8197256,19.5955462 C52.1244877,19.1416811 50.2019638,19.5347367 49.9748699,20.3816573 C49.747776,21.2287698 51.21592,22.5297473 52.9111579,22.9836124 C53.369761,23.1063823 56.0401783,23.8213253 58.4205373,24.4587697 L62.0523125,36.3256336 L64.5952654,37.006623 L64.3539661,26.0476811 C66.0244406,26.495024 67.7292768,26.9513828 68.8470857,27.2506345 L70.82144,30.7298189 L72.5166779,31.183684 L72.2252759,26.3392596 L74.9016441,22.2895786 L73.2064061,21.8357136 L69.7558454,23.8623764 C68.6382284,23.5631248 66.9333922,23.1065741 65.2627257,22.659423 L70.9548552,13.2893924 Z" id="Path" fill="#FFFFFF" fill-rule="nonzero"></path>
                        <polygon id="Path" fill="#E8AA37" fill-rule="nonzero" opacity="0.60006359" points="30.3716535 34.1978774 77.8402357 46.9078254 78.7255757 43.6049308 53.8924801 18.7892931 34.5033041 18.7892931"></polygon>
                        <path d="M53.8197256,19.5955462 C52.1242957,19.1414893 50.2015799,19.5347367 49.9752538,20.3816573 C49.7481599,21.2287698 51.215536,22.5299391 52.9117338,22.9838042 C53.369761,23.1067659 56.0401783,23.8219007 58.4201534,24.4589615 L62.0525044,36.3260173 L64.5952654,37.0068149 L64.4265286,29.3156629 L55.0210391,19.9172417 C54.4242216,19.757449 53.9809757,19.6387075 53.8197256,19.5955462 Z" id="Path" fill="#FDE7BF" fill-rule="nonzero"></path>
                        <path d="M48.8113734,1.00511075 L27.3478297,81.0510998 L24.3810193,80.2567401 C21.1039944,79.3793188 19.1592027,76.0133128 20.03744,72.738617 L38.3212848,4.55124322 C39.1993301,1.27654738 42.5677301,-0.66686212 45.844755,0.210750994 L48.8113734,1.00511075 Z" id="Path" fill="#FF7200" fill-rule="nonzero"></path>
                        <path d="M55.285758,77.9112591 C55.285758,81.3014354 52.5354835,84.0497552 49.142896,84.0497552 L3.071431,84.0497552 C1.37504127,84.0497552 0,82.6756912 0,80.9805071 L0,19.5955462 C0,17.9003621 1.37504127,16.5262981 3.071431,16.5262981 L49.142896,16.5262981 C52.5354835,16.5262981 55.285758,19.2746179 55.285758,22.6647942 L55.285758,77.9112591 Z" id="Path" fill="#00AEE6" fill-rule="nonzero"></path>
                        <path d="M7.071431,16.5262981 C5.37504127,16.5262981 4,17.9003621 4,19.5955462 L4,19.5955462 L4,80.9805071 C4,82.6756912 5.37504127,84.0497552 7.071431,84.0497552 L7.071431,84.0497552 L3.071431,84.0497552 C1.37504127,84.0497552 -7.10542736e-14,82.6756912 -7.10542736e-14,80.9805071 L-7.10542736e-14,19.5955462 C-7.10542736e-14,17.9003621 1.37504127,16.5262981 3.071431,16.5262981 Z" id="Combined-Shape" fill="#0093C3" fill-rule="nonzero"></path>
                        <path d="M28.642879,25.7340423 C18.4651165,25.7340423 10.214293,33.9790017 10.214293,44.1495305 C10.214293,54.3200594 18.4651165,62.5650188 28.642879,62.5650188 C38.8206415,62.5650188 47.071465,54.3200594 47.071465,44.1495305 C47.071465,33.9790017 38.8208335,25.7340423 28.642879,25.7340423 Z M42.2813764,37.2437224 L35.6397908,37.2437224 C35.0045805,34.0632142 34.0125083,31.4925271 32.9995119,29.5092174 C37.0578321,30.7194602 40.3895669,33.5316588 42.2813764,37.2437224 Z M33.2500255,44.1495305 C33.2500255,45.5195661 33.1473245,46.7781497 33.0062307,47.9860906 L24.2801032,47.9860906 C24.1384335,46.7781497 24.0355405,45.5193743 24.0355405,44.1495305 C24.0355405,42.7789195 24.1367058,41.5205278 24.2770318,40.3129705 L33.0091101,40.3129705 C33.1488603,41.5205278 33.2500255,42.7791113 33.2500255,44.1495305 Z M24.7893849,37.2437224 C25.6420909,33.3977628 27.0488063,30.603788 28.1959858,28.8481781 C28.3474457,28.843766 28.4898834,28.8032903 28.642879,28.8032903 C28.7974104,28.8032903 28.9404239,28.8445333 29.0941874,28.8489454 C30.2467419,30.6158731 31.6482742,33.4109989 32.496949,37.2437224 L24.7893849,37.2437224 Z M24.2862461,29.5092174 C23.2768971,31.4883069 22.284057,34.0618714 21.6482708,37.2437224 L15.0043816,37.2437224 C16.8963831,33.5316588 20.2279259,30.7202275 24.2862461,29.5092174 Z M13.830903,40.3129705 L21.1817972,40.3129705 C21.053565,41.5283927 20.9643015,42.7925393 20.9643015,44.1495305 C20.9643015,45.5072892 21.0558685,46.7699011 21.1862124,47.9860906 L13.830711,47.9860906 C13.5097465,46.7526365 13.285532,45.4819679 13.285532,44.1495305 C13.285724,42.8172851 13.5099385,41.5464245 13.830903,40.3129705 Z M15.0043816,51.0553387 L21.6557574,51.0553387 C22.2976865,54.2429446 23.2911025,56.8356919 24.2818309,58.7885009 C20.2258143,57.5774908 16.8956153,54.7660595 15.0043816,51.0553387 Z M28.1959858,59.450883 C27.0952617,57.75896 25.6614793,54.9575039 24.7932242,51.0553387 L32.4929178,51.0553387 C31.6260064,54.9548183 30.1937597,57.7551235 29.0893883,59.450883 C28.9379284,59.4552951 28.7962586,59.4957708 28.6432629,59.4957708 C28.4902673,59.4957708 28.3482136,59.4554869 28.1959858,59.450883 Z M33.0056548,58.7885009 C33.997727,56.8337736 34.9905671,54.2431364 35.6309604,51.0553387 L42.2815684,51.0553387 C40.3903347,54.7658677 37.0609035,57.5767234 33.0056548,58.7885009 Z M43.455047,47.9860906 L36.1003135,47.9860906 C36.2300814,46.7699011 36.3214565,45.5072892 36.3214565,44.1495305 C36.3214565,42.7925393 36.2329609,41.5283927 36.1047287,40.3129705 L43.454855,40.3129705 C43.7758196,41.5464245 44.000034,42.8170932 44.000034,44.1495305 C44.000034,45.4819679 43.7758196,46.7528284 43.455047,47.9860906 Z" id="Shape" fill="#FFFFFF" fill-rule="nonzero"></path>
                        <g id="Group" stroke-width="1" fill="none" fill-rule="evenodd" transform="translate(12.230112, 70.372994)" stroke-linejoin="round">
                            <path d="M0,4.47227806 L0,0.0782658252 L1.65876471,0.0782658252 C1.95074261,0.0782658252 2.17361333,0.0922692694 2.32756881,0.120276158 C2.5435288,0.156339822 2.7243593,0.224822419 2.87044423,0.325532121 C3.01633721,0.426433651 3.13381944,0.568002717 3.22289094,0.749663835 C3.31177048,0.931516782 3.35630623,1.13140156 3.35630623,1.34912634 C3.35630623,1.72280729 3.23728828,2.03913167 2.99944434,2.29771582 C2.76140843,2.55668362 2.33160006,2.68578387 1.70963528,2.68578387 L0.58184421,2.68578387 L0.58184421,4.47227806 L0,4.47227806 Z M0.58184421,2.16727278 L1.71865761,2.16727278 C2.09452398,2.16727278 2.36154651,2.09744738 2.51953324,1.95741294 C2.67751998,1.81757033 2.75641736,1.6207548 2.75641736,1.36696635 C2.75641736,1.18319512 2.70996197,1.02589616 2.61685921,0.894877634 C2.52394843,0.764050936 2.40128315,0.677536506 2.24943928,0.635526174 C2.15134545,0.609629393 1.97051495,0.596585089 1.70656385,0.596585089 L0.58184421,0.596585089 L0.58184421,2.16727278 L0.58184421,2.16727278 Z" id="Shape" stroke="#FFFFFF" stroke-width="0.3" fill="#FFFFFF" fill-rule="nonzero"></path>
                            <path d="M3.15839089,4.47227806 L4.84710205,0.0782658252 L5.4740579,0.0782658252 L7.2737245,4.47227806 L6.6108713,4.47227806 L6.09794232,3.14137538 L4.25930694,3.14137538 L3.77632442,4.47227806 L3.15839089,4.47227806 Z M4.42708386,2.66775204 L5.91787968,2.66775204 L5.45889271,1.45079519 C5.31895064,1.08114262 5.21490591,0.777478896 5.1469505,0.539612172 C5.09089688,0.821407509 5.0119995,1.10128456 4.91006638,1.37885969 L4.42708386,2.66775204 Z" id="Shape" stroke="#FFFFFF" stroke-width="0.3" fill="#FFFFFF" fill-rule="nonzero"></path>
                            <path d="M7.54055507,3.06042396 L8.0893814,3.01246696 C8.1152966,3.23230185 8.1757654,3.41262017 8.27078779,3.55342193 C8.36581019,3.69422368 8.51323888,3.80816951 8.71326582,3.8950676 C8.91329277,3.98196568 9.13808312,4.02551064 9.38821278,4.02551064 C9.61012367,4.02551064 9.80611936,3.99251623 9.97619986,3.92652739 C10.1460884,3.86053856 10.2725929,3.7703794 10.3557135,3.6552826 C10.4386422,3.54037762 10.4801065,3.41511394 10.4801065,3.27910788 C10.4801065,3.14118355 10.4401779,3.02090739 10.3601287,2.91789575 C10.2800796,2.81507594 10.1482,2.72875334 9.9641061,2.65854429 C9.84604797,2.6126974 9.5851683,2.54133738 9.18127512,2.44427241 C8.77738194,2.34739927 8.49442636,2.25608914 8.33240838,2.16995837 C8.12239928,2.06023275 7.96594827,1.92384304 7.86305533,1.76078924 C7.75997042,1.59792726 7.70852395,1.41569066 7.70852395,1.21369577 C7.70852395,0.991942603 7.77148829,0.78476836 7.89741696,0.591789389 C8.02334563,0.399002246 8.20724756,0.25263748 8.44931472,0.15269509 C8.69118991,0.0527527008 8.96013209,0.00287742004 9.25614125,0.00287742004 C9.58209687,0.00287742004 9.86946763,0.0552464648 10.1184455,0.160176382 C10.3674234,0.2651063 10.5588119,0.419527842 10.6928031,0.623249182 C10.8267943,0.827162349 10.8987809,1.05793144 10.9087631,1.31555644 L10.3509144,1.35756678 C10.320968,1.07999166 10.2194188,0.870131821 10.0464588,0.728179099 C9.87349888,0.586418205 9.61799422,0.515441844 9.28013681,0.515441844 C8.92826599,0.515441844 8.6718015,0.579896053 8.51074334,0.708804471 C8.34968518,0.837712889 8.26925208,0.993093571 8.26925208,1.17494652 C8.26925208,1.33282096 8.32626552,1.46268852 8.44029239,1.56454919 C8.55220766,1.66640986 8.8445695,1.77095612 9.31756987,1.87780432 C9.79037828,1.98484435 10.1147982,2.07826458 10.2908296,2.15806503 C10.5467182,2.27603925 10.7356112,2.42547327 10.8577006,2.60617525 C10.979598,2.78706905 11.0406427,2.99539427 11.0406427,3.23115088 C11.0406427,3.46498922 10.9736471,3.68520776 10.8396559,3.89199835 C10.7056647,4.09878894 10.5131244,4.25973263 10.2622269,4.37463761 C10.0111374,4.48954258 9.7287577,4.54689915 9.41489584,4.54689915 C9.01695356,4.54689915 8.68351133,4.48877527 8.41456916,4.37310298 C8.14562698,4.25723887 7.93465806,4.08286721 7.78166241,3.84998802 C7.62905068,3.61749248 7.54861758,3.35411263 7.54055507,3.06042396 Z" id="Path" stroke="#FFFFFF" stroke-width="0.3" fill="#FFFFFF" fill-rule="nonzero"></path>
                            <path d="M11.637844,3.06042396 L12.1866704,3.01246696 C12.2125856,3.23230185 12.2730544,3.41262017 12.3680767,3.55342193 C12.4630991,3.69422368 12.6105278,3.80816951 12.8105548,3.8950676 C13.0105817,3.98196568 13.2353721,4.02551064 13.4855017,4.02551064 C13.7074126,4.02551064 13.9034083,3.99251623 14.0734888,3.92652739 C14.2433773,3.86053856 14.3698819,3.7703794 14.4530025,3.6552826 C14.5359311,3.54037762 14.5773955,3.41511394 14.5773955,3.27910788 C14.5773955,3.14118355 14.5374669,3.02090739 14.4574177,2.91789575 C14.3773685,2.81507594 14.2454889,2.72875334 14.0613951,2.65854429 C13.9433369,2.6126974 13.6824573,2.54133738 13.2785641,2.44427241 C12.8746709,2.34739927 12.5917153,2.25608914 12.4296973,2.16995837 C12.2196882,2.06023275 12.0632372,1.92384304 11.9603443,1.76078924 C11.8572594,1.59792726 11.8058129,1.41569066 11.8058129,1.21369577 C11.8058129,0.991942603 11.8687772,0.78476836 11.9947059,0.591789389 C12.1206346,0.399002246 12.3045365,0.25263748 12.5466037,0.15269509 C12.7884789,0.0527527008 13.057421,0.00287742004 13.3534302,0.00287742004 C13.6793858,0.00287742004 13.9667566,0.0552464648 14.2157345,0.160176382 C14.4647123,0.2651063 14.6561009,0.419527842 14.7900921,0.623249182 C14.9240832,0.827162349 14.9960699,1.05793144 15.006052,1.31555644 L14.4482034,1.35756678 C14.4182569,1.07999166 14.3167078,0.870131821 14.1437478,0.728179099 C13.9707878,0.586418205 13.7152832,0.515441844 13.3774258,0.515441844 C13.0255549,0.515441844 12.7690905,0.579896053 12.6080323,0.708804471 C12.4469741,0.837712889 12.366541,0.993093571 12.366541,1.17494652 C12.366541,1.33282096 12.4235545,1.46268852 12.5375813,1.56454919 C12.6494966,1.66640986 12.9418585,1.77095612 13.4148588,1.87780432 C13.8876672,1.98484435 14.2120871,2.07826458 14.3881185,2.15806503 C14.6440071,2.27603925 14.8329001,2.42547327 14.9549895,2.60617525 C15.0768869,2.78706905 15.1379316,2.99539427 15.1379316,3.23115088 C15.1379316,3.46498922 15.070936,3.68520776 14.9369449,3.89199835 C14.8029537,4.09878894 14.6104133,4.25973263 14.3595158,4.37463761 C14.1084263,4.48954258 13.8260467,4.54689915 13.5121848,4.54689915 C13.1142425,4.54689915 12.7808003,4.48877527 12.5118581,4.37310298 C12.2429159,4.25723887 12.031947,4.08286721 11.8789514,3.84998802 C11.7263396,3.61749248 11.6457146,3.35411263 11.637844,3.06042396 Z" id="Path" stroke="#FFFFFF" stroke-width="0.3" fill="#FFFFFF" fill-rule="nonzero"></path>
                            <path d="M15.9330483,4.47227806 L15.9330483,0.0782658252 L17.591813,0.0782658252 C17.8837909,0.0782658252 18.1066616,0.0922692694 18.2606171,0.120276158 C18.4765771,0.156339822 18.6574076,0.224822419 18.8034926,0.325532121 C18.9493855,0.426433651 19.0668678,0.568002717 19.1559393,0.749663835 C19.2448188,0.931516782 19.2893545,1.13140156 19.2893545,1.34912634 C19.2893545,1.72280729 19.1703366,2.03913167 18.9324927,2.29771582 C18.6944568,2.55668362 18.2646484,2.68578387 17.6426836,2.68578387 L16.5148925,2.68578387 L16.5148925,4.47227806 L15.9330483,4.47227806 Z M16.5148925,2.16727278 L17.6517059,2.16727278 C18.0275723,2.16727278 18.2945948,2.09744738 18.4525816,1.95741294 C18.6105683,1.81757033 18.6894657,1.6207548 18.6894657,1.36696635 C18.6894657,1.18319512 18.6430103,1.02589616 18.5499075,0.894877634 C18.4569967,0.764050936 18.3343315,0.677536506 18.1824876,0.635526174 C18.0843938,0.609629393 17.9035633,0.596585089 17.6396122,0.596585089 L16.5148925,0.596585089 L16.5148925,2.16727278 Z" id="Shape" stroke="#FFFFFF" stroke-width="0.3" fill="#FFFFFF" fill-rule="nonzero"></path>
                            <path d="M19.8533461,2.33205303 C19.8533461,1.60272296 20.0493418,1.03184283 20.4413331,0.619028965 C20.8333245,0.206598759 21.3391508,0 21.959004,0 C22.3648168,0 22.730893,0.0970649695 23.0568486,0.290811252 C23.3828042,0.484749363 23.6312062,0.75503502 23.8022465,1.10166822 C23.9732868,1.44849325 24.058711,1.84154883 24.058711,2.28102678 C24.058711,2.72664323 23.9686797,3.12526182 23.788809,3.47688255 C23.6087464,3.82869511 23.3538176,4.09495238 23.0240227,4.27565436 C22.6940358,4.45654816 22.3381337,4.54689915 21.9561245,4.54689915 C21.5422492,4.54689915 21.1723337,4.44695676 20.8463781,4.24707198 C20.5204225,4.04737903 20.2735562,3.77459961 20.1055873,3.42873372 C19.9372345,3.08344332 19.8533461,2.71781915 19.8533461,2.33205303 Z M20.4532349,2.34106895 C20.4532349,2.87070606 20.5956725,3.28793197 20.8807397,3.59236301 C21.165615,3.89717771 21.5230527,4.04948914 21.9530531,4.04948914 C22.390924,4.04948914 22.7514332,3.89564308 23.0343888,3.58795097 C23.3173443,3.28025885 23.4588221,2.84365832 23.4588221,2.27814936 C23.4588221,1.92058197 23.3983533,1.60828598 23.2774157,1.34145322 C23.1564781,1.07462047 22.9794869,0.867829885 22.7464421,0.721081463 C22.5133973,0.574141213 22.2519417,0.500862916 21.9620754,0.500862916 C21.5501197,0.500862916 21.1957534,0.642240154 20.8987844,0.92499463 C20.6016234,1.20774911 20.4532349,1.67983782 20.4532349,2.34106895 Z" id="Shape" stroke="#FFFFFF" stroke-width="0.3" fill="#FFFFFF" fill-rule="nonzero"></path>
                            <path d="M24.8173545,4.47227806 L24.8173545,0.0782658252 L26.7669453,0.0782658252 C27.1589367,0.0782658252 27.4568655,0.117782394 27.6607317,0.196623703 C27.8647899,0.27565684 28.0275757,0.415115798 28.1496651,0.614808749 C28.2715625,0.814693528 28.3326072,1.03548756 28.3326072,1.27719084 C28.3326072,1.58891135 28.2316339,1.85171571 28.0296874,2.06541211 C27.8277408,2.27930033 27.5157986,2.41511456 27.0938607,2.47304661 C27.2478162,2.54709222 27.3647225,2.61998686 27.4447717,2.69192237 C27.6146602,2.84787853 27.7757184,3.04258395 27.9277542,3.27642229 L28.6925406,4.47227806 L27.9605802,4.47227806 L27.3787359,3.5580258 C27.2086555,3.29426229 27.0687134,3.09245924 26.9587178,2.95261662 C26.8487221,2.81277401 26.7502444,2.71494173 26.6632845,2.65892795 C26.5763246,2.603106 26.487829,2.56416492 26.3977977,2.54210469 C26.3317619,2.52829308 26.2238779,2.52119544 26.0737617,2.52119544 L25.3988147,2.52119544 L25.3988147,4.47246989 L24.8173545,4.47246989 L24.8173545,4.47227806 Z M25.3991987,2.01745511 L26.6500389,2.01745511 C26.9159097,2.01745511 27.1239991,1.9900237 27.2739234,1.93496907 C27.4238476,1.88010626 27.5378745,1.79224903 27.615812,1.67120556 C27.6937496,1.55035392 27.7327184,1.41914357 27.7327184,1.27699902 C27.7327184,1.06924929 27.6570844,0.898330538 27.5062003,0.764434592 C27.3551243,0.630730474 27.1167045,0.563590673 26.7907489,0.563590673 L25.3990067,0.563590673 L25.3990067,2.01745511 L25.3991987,2.01745511 Z" id="Shape" stroke="#FFFFFF" stroke-width="0.3" fill="#FFFFFF" fill-rule="nonzero"></path>
                            <polygon id="Path" stroke="#FFFFFF" stroke-width="0.3" fill="#FFFFFF" fill-rule="nonzero" points="30.2524436 4.47227806 30.2524436 0.596776917 28.803688 0.596776917 28.803688 0.0782658252 32.2889943 0.0782658252 32.2889943 0.596776917 30.8342878 0.596776917 30.8342878 4.47227806"></polygon>
                        </g>
                    </g>
                </g>
            </g>
        </g>
    </g>
</svg>