<?xml version="1.0" encoding="UTF-8"?>
<svg width="156px" height="86px" viewBox="0 0 156 86" version="1.1" xmlns="http://www.w3.org/2000/svg" xmlns:xlink="http://www.w3.org/1999/xlink">
    <title>illu-negocios-large</title>
    <defs>
        <rect id="path-1" x="0" y="0" width="156" height="86"></rect>
    </defs>
    <g id="Assets" stroke="none" stroke-width="1" fill="none" fill-rule="evenodd">
        <g id="Artboard" transform="translate(-771.000000, -115.000000)">
            <g id="illu-negocios-large" transform="translate(771.000000, 115.000000)">
                <mask id="mask-2" fill="white">
                    <use xlink:href="#path-1"></use>
                </mask>
                <g id="Rectangle-Copy">
                    <use fill="#FFFFFF" xlink:href="#path-1"></use>
                    <use fill-opacity="0.23" fill="#FFD800" xlink:href="#path-1"></use>
                </g>
                <g id="suitcase" mask="url(#mask-2)">
                    <g transform="translate(32.000000, 16.000000)">
                        <path d="M60.5250391,4.10910983 C60.3757188,3.99443531 58.9928438,2.95892806 56.5295078,1.96248973 C53.3560469,0.678641609 49.7146797,0 45.9992813,0 C42.2838828,0 38.6426953,0.678641609 35.468875,1.96248973 C33.0057188,2.95892806 31.6228438,3.99443531 31.4733438,4.1092907 C30.7233281,4.68501465 30.2830938,5.58016319 30.2830938,6.52957412 L30.2830938,11.3048452 L33.3066953,12.9327169 L36.3304766,11.3048452 L36.3304766,8.25312846 C37.9898906,7.40066633 41.3083594,6.08715478 45.9991016,6.08715478 C50.6900234,6.08715478 54.0083125,7.40066633 55.6677266,8.25312846 L55.6677266,11.3046643 L58.6913281,12.932536 L61.7151096,11.3046643 L61.7151096,6.52957412 C61.7154688,5.57998231 61.2752344,4.68483377 60.5250391,4.10910983 Z" id="Path" fill="#0AD6A0" fill-rule="nonzero"></path>
                        <g id="Group" stroke-width="1" fill="none" fill-rule="evenodd" transform="translate(30.283273, 11.304845)">
                            <polygon id="Path" fill="#09B486" fill-rule="nonzero" points="5.10702591e-15 0 5.10702591e-15 3.36065061 3.02378125 4.98852228 6.0475625 3.36065061 6.0475625 0"></polygon>
                            <polygon id="Path" fill="#09B486" fill-rule="nonzero" points="31.4321953 0 25.3848125 0 25.3848125 3.36065061 28.4085937 4.98852228 31.4321953 3.36065061"></polygon>
                        </g>
                        <path d="M2.38032031,48.1484646 L2.38032031,75.1877747 C2.38032031,78.3977567 4.96548437,81 8.15439844,81 L83.8456016,81 C87.0345156,81 89.6196797,78.3977567 89.6196797,75.1877747 L89.6196797,48.1484646 L2.38032031,48.1484646 Z" id="Path" fill="#103D7C" fill-rule="nonzero"></path>
                        <path d="M2.38032031,44.787814 L2.38032031,48.1486454 C7.17725781,51.9824641 19.8552891,59.4249125 46,59.4249125 C72.1447109,59.4249125 84.8227422,51.9824641 89.6196797,48.1484646 L89.6196797,44.7876331 L2.38032031,44.7876331 L2.38032031,44.787814 Z" id="Path" fill="#0A264E" fill-rule="nonzero"></path>
                        <path d="M2.12965625,42.8522746 C6.72696094,46.6198931 19.3873828,54.331302 46,54.331302 C72.6126172,54.331302 85.2728594,46.6198931 89.8703438,42.8522746 C91.218,41.7478541 92,38.4649795 92,36.715741 L92,20.4777212 C92,17.2677391 89.4148359,14.6654958 86.2259219,14.6654958 L5.77407812,14.6654958 C2.58516406,14.6654958 0,17.2677391 0,20.4777212 L0,36.715741 C0,38.4649795 0.782,41.7478541 2.12965625,42.8522746 Z" id="Path" fill="#103D7C" fill-rule="nonzero"></path>
                        <path d="M89.8703438,41.2244029 C85.2730391,44.9920214 72.6126172,52.7034304 46,52.7034304 C19.3873828,52.7034304 6.72714062,44.9918405 2.12965625,41.2244029 C0.782,40.1199824 0,38.4649795 0,36.715741 L0,40.0765725 C0,41.825811 0.782,43.4808139 2.12965625,44.5852344 C6.72696094,48.3528529 19.3873828,56.0642619 46,56.0642619 C72.6126172,56.0642619 85.2728594,48.3528529 89.8703438,44.5852344 C91.218,43.4808139 92,41.825811 92,40.0765725 L92,36.715741 C92,38.4649795 91.218,40.1199824 89.8703438,41.2244029 L89.8703438,41.2244029 Z" id="Path" fill="#0D3265" fill-rule="nonzero"></path>
                        <path d="M45.9994609,61.6576289 C48.9865859,61.6576289 51.4080547,59.4249125 51.4080547,54.5854309 L51.4080547,51.2844689 C51.4080547,50.2144146 50.5462734,49.3471207 49.4834219,49.3471207 L42.5155,49.3471207 C41.4524687,49.3471207 40.5908672,50.2145955 40.5908672,51.2844689 L40.5908672,54.5859735 C40.5906875,59.4249125 43.0123359,61.6576289 45.9994609,61.6576289 L45.9994609,61.6576289 Z" id="Path" fill="#FFE3AE" fill-rule="nonzero"></path>
                        <path d="M45.9994609,60.0297572 C43.0123359,60.0297572 40.5908672,57.5922907 40.5908672,54.5854309 L40.5908672,57.9462624 C40.5908672,60.9531222 43.0123359,63.3905887 45.9994609,63.3905887 C48.9865859,63.3905887 51.4080547,60.9531222 51.4080547,57.9462624 L51.4080547,54.5854309 C51.4080547,57.5921098 48.9865859,60.0297572 45.9994609,60.0297572 L45.9994609,60.0297572 Z" id="Path" fill="#FFBA3A" fill-rule="nonzero"></path>
                    </g>
                </g>
            </g>
        </g>
    </g>
</svg>